<?xml version="1.0" encoding="UTF-8"?>
<svg viewBox="0 0 380 182" version="1.1" xmlns="http://www.w3.org/2000/svg" xmlns:xlink="http://www.w3.org/1999/xlink">
    <title>Lazy Keto Main SVG</title>
    <defs>
        <path d="M41.7758758,74.1111111 L41.7758758,66.3084444 L12.0178634,66.3084444 L12.0178634,9.73911111 L2.99746584,9.73911111 L2.99746584,74.1111111 L41.7758758,74.1111111 Z M66.0472547,75.1328889 C67.9691263,75.1328889 69.9064969,75.0554815 71.8593665,74.9006667 C73.812236,74.7458519 75.6256149,74.5755556 77.2995031,74.3897778 C78.9733913,74.204 80.4767909,74.0027407 81.8097019,73.786 C83.1426128,73.5692593 84.1810435,73.398963 84.9249938,73.2751111 L84.9249938,73.2751111 L84.9249938,43.0862222 C84.9249938,40.3614815 84.6150145,37.868963 83.9950559,35.6086667 C83.3750973,33.3483704 82.3366667,31.3977037 80.879764,29.7566667 C79.4228613,28.1156296 77.5009896,26.8461481 75.1141491,25.9482222 C72.7273085,25.0502963 69.7980041,24.6013333 66.326236,24.6013333 C63.2884389,24.6013333 60.4676273,24.8335556 57.8638012,25.298 C55.2599752,25.7624444 53.4000994,26.2423704 52.2841739,26.7377778 L52.2841739,26.7377778 L53.3071056,33.8902222 C54.3610352,33.4567407 55.9574286,33.0387407 58.0962857,32.6362222 C60.2351429,32.2337037 62.7304762,32.0324444 65.5822857,32.0324444 C67.8141366,32.0324444 69.6275155,32.3575556 71.0224224,33.0077778 C72.4173292,33.658 73.5177557,34.524963 74.3237019,35.6086667 C75.129648,36.6923704 75.6876108,37.9308889 75.9975901,39.3242222 C76.3075694,40.7175556 76.462559,42.1263704 76.462559,43.5506667 L76.462559,43.5506667 L76.462559,45.9657778 C76.2145756,45.9038519 75.7806046,45.810963 75.160646,45.6871111 C74.5406874,45.5632593 73.812236,45.4239259 72.9752919,45.2691111 C72.1383478,45.1142963 71.2549068,44.9904444 70.3249689,44.8975556 C69.3950311,44.8046667 68.4960911,44.7582222 67.6281491,44.7582222 C64.9003313,44.7582222 62.2965052,45.0368889 59.8166708,45.5942222 C57.3368364,46.1515556 55.1669814,47.0185185 53.3071056,48.1951111 C51.4472298,49.3717037 49.9748282,50.9198519 48.8899006,52.8395556 C47.8049731,54.7592593 47.2625093,57.0505185 47.2625093,59.7133333 C47.2625093,62.5 47.7274783,64.8841481 48.6574161,66.8657778 C49.587354,68.8474074 50.8892671,70.442 52.5631553,71.6495556 C54.2370435,72.8571111 56.220911,73.7395556 58.5147578,74.2968889 C60.8086046,74.8542222 63.3194369,75.1328889 66.0472547,75.1328889 Z M67.0701863,67.8875556 C63.6604141,67.8875556 60.9635942,67.2837778 58.9797267,66.0762222 C56.9958592,64.8686667 56.0039255,62.7167407 56.0039255,59.6204444 C56.0039255,57.9484444 56.4068986,56.6015556 57.2128447,55.5797778 C58.0187909,54.558 59.0262236,53.752963 60.2351429,53.1646667 C61.4440621,52.5763704 62.7769731,52.1893333 64.2338758,52.0035556 C65.6907785,51.8177778 67.0701863,51.7248889 68.3720994,51.7248889 C70.3559669,51.7248889 72.045354,51.8332593 73.4402609,52.05 C74.8351677,52.2667407 75.8426004,52.5299259 76.462559,52.8395556 L76.462559,52.8395556 L76.462559,67.2373333 C75.4086294,67.485037 74.0912174,67.6553333 72.510323,67.7482222 C70.9294286,67.8411111 69.1160497,67.8875556 67.0701863,67.8875556 Z M132.072845,74.1111111 L132.072845,66.8657778 L105.476621,66.8657778 C107.336497,63.7075556 109.490853,60.3945185 111.939689,56.9266667 C114.388526,53.4588148 116.837362,50.1457778 119.286199,46.9875556 C121.735035,43.8293333 124.028882,40.9497778 126.167739,38.3488889 C128.306596,35.748 130.026981,33.7354074 131.328894,32.3111111 L131.328894,32.3111111 L131.328894,25.8088889 L96.4562236,25.8088889 L96.4562236,33.0542222 L120.355627,33.0542222 C118.681739,35.0358519 116.713371,37.4664444 114.450522,40.346 C112.187673,43.2255556 109.862828,46.2908889 107.475988,49.542 C105.089147,52.7931111 102.810799,56.0597037 100.640944,59.3417778 C98.471089,62.6238519 96.6422112,65.6272593 95.1543106,68.352 L95.1543106,68.352 L95.1543106,74.1111111 L132.072845,74.1111111 Z M143.325093,91.5742222 C145.866923,91.5742222 148.145271,91.2645926 150.160137,90.6453333 C152.175002,90.0260741 153.988381,89.0662222 155.600273,87.7657778 C157.212166,86.4653333 158.684567,84.8088148 160.017478,82.7962222 C161.350389,80.7836296 162.636803,78.384 163.87672,75.5973333 C167.038509,68.2900741 169.983313,60.440963 172.71113,52.05 C175.438948,43.659037 177.918783,34.912 180.150634,25.8088889 L180.150634,25.8088889 L171.22323,25.8088889 C169.673333,32.5588148 168.030443,39.122963 166.294559,45.5013333 C164.558675,51.8797037 162.512812,58.32 160.156969,64.8222222 C158.669068,61.664 157.243164,58.3819259 155.879255,54.976 C154.515346,51.5700741 153.244431,48.1641481 152.066509,44.7582222 C150.888588,41.3522963 149.819159,38.0392593 148.858224,34.8191111 C147.897288,31.598963 147.075843,28.5955556 146.393888,25.8088889 L146.393888,25.8088889 L137.094509,25.8088889 C139.32636,34.3546667 142.131673,42.7920741 145.510447,51.1211111 C148.889222,59.4501481 152.531478,67.3302222 156.437217,74.7613333 C154.887321,78.1672593 153.151437,80.6288148 151.229565,82.146 C149.307694,83.6631852 146.641872,84.4217778 143.232099,84.4217778 C142.17817,84.4217778 141.108741,84.2824444 140.023814,84.0037778 C138.938886,83.7251111 138.055445,83.430963 137.373491,83.1213333 L137.373491,83.1213333 L135.792596,90.088 C136.04058,90.2118519 136.459052,90.3666667 137.048012,90.5524444 C137.636973,90.7382222 138.28793,90.9085185 139.000882,91.0633333 C139.713834,91.2181481 140.442286,91.342 141.186236,91.4348889 C141.930186,91.5277778 142.643139,91.5742222 143.325093,91.5742222 Z" id="path-1"></path>
        <path d="M9.57065839,164.555556 L9.57065839,133.995111 C12.1744845,135.605185 14.8558054,137.555852 17.6146211,139.847111 C20.3734369,142.13837 23.1012547,144.630889 25.7980745,147.324667 C28.4948944,150.018444 31.0522236,152.836074 33.4700621,155.777556 C35.8879006,158.719037 38.0267578,161.645037 39.8866335,164.555556 L39.8866335,164.555556 L50.4879255,164.555556 C48.8140373,161.645037 46.721677,158.579704 44.2108447,155.359556 C41.7000124,152.139407 39.0186915,148.981185 36.166882,145.884889 C33.3150725,142.788593 30.4012671,139.878074 27.4254658,137.153333 C24.4496646,134.428593 21.628853,132.137333 18.9630311,130.279556 C21.2568778,128.050222 23.7057143,125.635111 26.3095404,123.034222 C28.9133665,120.433333 31.5326915,117.786 34.1675155,115.092222 C36.8023395,112.398444 39.3286708,109.766593 41.7465093,107.196667 C44.1643478,104.626741 46.3342029,102.289037 48.2560745,100.183556 L48.2560745,100.183556 L37.3758012,100.183556 C35.8259048,101.979407 33.9195321,104.069407 31.6566832,106.453556 C29.3938344,108.837704 26.9914948,111.330222 24.4496646,113.931111 C21.9078344,116.532 19.3350062,119.117407 16.7311801,121.687333 C14.127354,124.257259 11.7405135,126.564 9.57065839,128.607556 L9.57065839,128.607556 L9.57065839,100.183556 L0.55026087,100.183556 L0.55026087,164.555556 L9.57065839,164.555556 Z M78.2000745,165.670222 C81.5478509,165.670222 84.5391511,165.360593 87.1739752,164.741333 C89.8087992,164.122074 91.653176,163.533778 92.7071056,162.976444 L92.7071056,162.976444 L91.4981863,155.731111 C90.4442567,156.226519 88.8788613,156.737407 86.802,157.263778 C84.7251387,157.790148 82.1678095,158.053333 79.1300124,158.053333 C73.7363727,158.053333 69.7686377,156.752889 67.2268075,154.152 C64.6849772,151.551111 63.2280745,147.742667 62.8560994,142.726667 L62.8560994,142.726667 L95.9618882,142.726667 C96.0238841,142.231259 96.054882,141.689407 96.054882,141.101111 L96.054882,141.101111 L96.054882,139.661333 C96.054882,131.363259 94.3189979,125.186148 90.8472298,121.13 C87.3754617,117.073852 82.384795,115.045778 75.8752298,115.045778 C73.0854161,115.045778 70.3575983,115.572148 67.6917764,116.624889 C65.0259545,117.67763 62.6701118,119.256741 60.6242484,121.362222 C58.5783851,123.467704 56.9354948,126.115037 55.6955776,129.304222 C54.4556605,132.493407 53.8357019,136.224444 53.8357019,140.497333 C53.8357019,144.150963 54.3161698,147.510444 55.2771056,150.575778 C56.2380414,153.641111 57.7104431,156.288444 59.6943106,158.517778 C61.6781781,160.747111 64.2045093,162.496519 67.2733043,163.766 C70.3420994,165.035481 73.9843561,165.670222 78.2000745,165.670222 Z M87.0344845,135.76 L63.042087,135.76 C63.2280745,134.088 63.6155487,132.446963 64.2045093,130.836889 C64.79347,129.226815 65.6149151,127.802519 66.6688447,126.564 C67.7227743,125.325481 69.0091884,124.319185 70.528087,123.545111 C72.0469855,122.771037 73.7983685,122.384 75.782236,122.384 C79.316,122.384 82.0903147,123.638 84.1051801,126.146 C86.1200455,128.654 87.0964803,131.858667 87.0344845,135.76 L87.0344845,135.76 Z M124.789963,165.577333 C127.579776,165.577333 130.059611,165.252222 132.229466,164.602 C134.399321,163.951778 135.918219,163.409926 136.786161,162.976444 L136.786161,162.976444 L135.112273,155.824 C134.492315,156.071704 133.391888,156.489704 131.810994,157.078 C130.230099,157.666296 128.137739,157.960444 125.533913,157.960444 C124.046012,157.960444 122.744099,157.774667 121.628174,157.403111 C120.512248,157.031556 119.582311,156.396815 118.83836,155.498889 C118.09441,154.600963 117.536447,153.362444 117.164472,151.783333 C116.792497,150.204222 116.606509,148.207111 116.606509,145.792 L116.606509,145.792 L116.606509,123.498667 L134.926286,123.498667 L134.926286,116.253333 L116.606509,116.253333 L116.606509,101.298222 L107.958087,102.784444 L107.958087,145.884889 C107.958087,149.105037 108.221569,151.938148 108.748534,154.384222 C109.275499,156.830296 110.189938,158.889333 111.491851,160.561333 C112.793764,162.233333 114.514149,163.487333 116.653006,164.323333 C118.791863,165.159333 121.504182,165.577333 124.789963,165.577333 Z M164.591304,165.763111 C167.877085,165.763111 170.914882,165.159333 173.704696,163.951778 C176.494509,162.744222 178.896849,161.025778 180.911714,158.796444 C182.92658,156.567111 184.491975,153.904296 185.607901,150.808 C186.723826,147.711704 187.281789,144.243852 187.281789,140.404444 C187.281789,136.626963 186.723826,133.174593 185.607901,130.047333 C184.491975,126.920074 182.92658,124.241778 180.911714,122.012444 C178.896849,119.783111 176.494509,118.064667 173.704696,116.857111 C170.914882,115.649556 167.877085,115.045778 164.591304,115.045778 C161.305524,115.045778 158.267727,115.649556 155.477913,116.857111 C152.688099,118.064667 150.28576,119.783111 148.270894,122.012444 C146.256029,124.241778 144.690634,126.920074 143.574708,130.047333 C142.458783,133.174593 141.90082,136.626963 141.90082,140.404444 C141.90082,144.243852 142.458783,147.711704 143.574708,150.808 C144.690634,153.904296 146.256029,156.567111 148.270894,158.796444 C150.28576,161.025778 152.688099,162.744222 155.477913,163.951778 C158.267727,165.159333 161.305524,165.763111 164.591304,165.763111 Z M164.591304,158.146222 C160.375586,158.146222 157.043308,156.55163 154.594472,153.362444 C152.145636,150.173259 150.921217,145.853926 150.921217,140.404444 C150.921217,134.954963 152.145636,130.63563 154.594472,127.446444 C157.043308,124.257259 160.375586,122.662667 164.591304,122.662667 C168.807023,122.662667 172.1393,124.257259 174.588137,127.446444 C177.036973,130.63563 178.261391,134.954963 178.261391,140.404444 C178.261391,145.853926 177.036973,150.173259 174.588137,153.362444 C172.1393,156.55163 168.807023,158.146222 164.591304,158.146222 Z" id="path-2"></path>
        <path d="M249.858235,69.2222222 L249.858235,50.6310764 L256.56893,50.6310764 L256.56893,48.3680556 L240.423112,48.3680556 L240.423112,50.6310764 L247.119468,50.6310764 L247.119468,69.2222222 L249.858235,69.2222222 Z M261.903072,69.2222222 L261.903072,58.1792535 C262.266329,57.4344618 262.772977,56.8328993 263.423015,56.374566 C264.073054,55.9162326 264.828246,55.687066 265.688592,55.687066 C266.749685,55.687066 267.531165,55.9544271 268.033033,56.4891493 C268.534901,57.0238715 268.790615,57.8498264 268.800175,58.9670139 L268.800175,58.9670139 L268.800175,69.2222222 L271.452907,69.2222222 L271.452907,58.9813368 C271.424228,55.2860243 269.770453,53.4383681 266.491581,53.4383681 C264.60838,53.4383681 263.078877,54.1592882 261.903072,55.6011285 L261.903072,55.6011285 L261.903072,47.2222222 L259.25034,47.2222222 L259.25034,69.2222222 L261.903072,69.2222222 Z M277.002135,51.1180556 C277.518342,51.1180556 277.910278,50.9748264 278.177941,50.6883681 C278.445604,50.4019097 278.579435,50.0438368 278.579435,49.6141493 C278.579435,49.1844618 278.445604,48.8216146 278.177941,48.5256076 C277.910278,48.2296007 277.518342,48.0815972 277.002135,48.0815972 C276.485928,48.0815972 276.096382,48.2296007 275.833499,48.5256076 C275.570616,48.8216146 275.439174,49.1844618 275.439174,49.6141493 C275.439174,50.0438368 275.570616,50.4019097 275.833499,50.6883681 C276.096382,50.9748264 276.485928,51.1180556 277.002135,51.1180556 Z M278.306992,69.2222222 L278.306992,53.7248264 L275.65426,53.7248264 L275.65426,69.2222222 L278.306992,69.2222222 Z M285.204095,69.2222222 L285.204095,58.1792535 C285.567352,57.4344618 286.074,56.8328993 286.724039,56.374566 C287.374078,55.9162326 288.12927,55.687066 288.989616,55.687066 C290.050708,55.687066 290.832189,55.9544271 291.334057,56.4891493 C291.835925,57.0238715 292.091639,57.8498264 292.101199,58.9670139 L292.101199,58.9670139 L292.101199,69.2222222 L294.753931,69.2222222 L294.753931,58.9813368 C294.725252,55.2860243 293.071477,53.4383681 289.792605,53.4383681 C287.880726,53.4383681 286.332104,54.1831597 285.146739,55.6727431 L285.146739,55.6727431 L285.060705,53.7248264 L282.551364,53.7248264 L282.551364,69.2222222 L285.204095,69.2222222 Z M301.421608,69.2222222 L301.421608,63.7795139 L303.084943,62.046441 L308.49078,69.2222222 L311.602363,69.2222222 L304.86299,60.1987847 L310.899748,53.7248264 L307.673452,53.7248264 L302.841178,58.8237847 L301.421608,60.5282118 L301.421608,47.2222222 L298.768876,47.2222222 L298.768876,69.2222222 L301.421608,69.2222222 Z M323.790591,69.2222222 L323.790591,47.2222222 L321.137859,47.2222222 L321.137859,69.2222222 L323.790591,69.2222222 Z M334.473214,69.5086806 C337.07337,69.5086806 339.023486,68.5108507 340.323564,66.515191 L340.323564,66.515191 L338.703246,65.2547743 C338.215717,65.8849826 337.646933,66.391059 336.996894,66.7730035 C336.346856,67.1549479 335.553426,67.3459201 334.616605,67.3459201 C333.297409,67.3459201 332.210028,66.875651 331.354462,65.9351128 C330.498896,64.9945747 330.051994,63.7604167 330.013757,62.2326389 L330.013757,62.2326389 L340.524311,62.2326389 L340.524311,61.1297743 C340.524311,58.656684 339.965086,56.7565104 338.846637,55.4292535 C337.728188,54.1019965 336.160447,53.4383681 334.143415,53.4383681 C332.910253,53.4383681 331.765516,53.7797309 330.709203,54.4624566 C329.65289,55.1451823 328.830782,56.0904948 328.242879,57.2983941 C327.654976,58.5062934 327.361025,59.8789063 327.361025,61.4162326 L327.361025,61.4162326 L327.361025,61.9032118 C327.361025,64.2139757 328.020623,66.0592448 329.339819,67.4390191 C330.659016,68.8187934 332.370148,69.5086806 334.473214,69.5086806 Z M337.871579,60.0555556 L330.099791,60.0555556 C330.27186,58.6519097 330.721152,57.5609809 331.447666,56.7827691 C332.17418,56.0045573 333.072763,55.6154514 334.143415,55.6154514 C335.252305,55.6154514 336.131769,55.9854601 336.781808,56.7254774 C337.431847,57.4654948 337.795104,58.5086806 337.871579,59.8550347 L337.871579,59.8550347 L337.871579,60.0555556 Z M349.299835,69.5086806 C351.068323,69.5086806 352.507012,69.0909288 353.615902,68.2554253 C354.724791,67.4199219 355.279236,66.3098958 355.279236,64.9253472 C355.279236,64.0946181 355.080879,63.390408 354.684164,62.812717 C354.287449,62.235026 353.678038,61.7408854 352.85593,61.3302951 C352.033822,60.9197049 350.96078,60.5664063 349.636804,60.2703993 C348.312828,59.9743924 347.397516,59.6640625 346.890868,59.3394097 C346.38422,59.0147569 346.130896,58.5325521 346.130896,57.8927951 C346.130896,57.2148438 346.403339,56.6657986 346.948224,56.2456597 C347.493109,55.8255208 348.248302,55.6154514 349.2138,55.6154514 C350.150621,55.6154514 350.927322,55.8780382 351.543903,56.4032118 C352.160484,56.9283854 352.468774,57.5538194 352.468774,58.2795139 L352.468774,58.2795139 L355.135845,58.2795139 C355.135845,56.8663194 354.58857,55.7061632 353.494019,54.7990451 C352.399469,53.8919271 350.972729,53.4383681 349.2138,53.4383681 C347.540906,53.4383681 346.166743,53.8776042 345.091312,54.7560764 C344.01588,55.6345486 343.478164,56.7087674 343.478164,57.9787326 C343.478164,58.7426215 343.666962,59.4014757 344.044558,59.9552951 C344.422154,60.5091146 345.005277,60.9865451 345.793927,61.3875868 C346.582577,61.7886285 347.64845,62.1323785 348.991545,62.4188368 C350.334639,62.7052951 351.27624,63.046658 351.816346,63.4429253 C352.356451,63.8391927 352.626504,64.3953993 352.626504,65.1115451 C352.626504,65.7894965 352.322993,66.3313802 351.715972,66.7371962 C351.10895,67.1430122 350.303571,67.3459201 349.299835,67.3459201 C348.210064,67.3459201 347.33299,67.0857205 346.668612,66.5653212 C346.004234,66.0449219 345.648146,65.3407118 345.600349,64.452691 L345.600349,64.452691 L342.947617,64.452691 C342.947617,65.3693576 343.21767,66.2215712 343.757776,67.0093316 C344.297882,67.797092 345.045905,68.4105903 346.001844,68.8498264 C346.957783,69.2890625 348.057114,69.5086806 349.299835,69.5086806 Z M364.441916,69.5086806 C366.210404,69.5086806 367.649093,69.0909288 368.757982,68.2554253 C369.866872,67.4199219 370.421317,66.3098958 370.421317,64.9253472 C370.421317,64.0946181 370.22296,63.390408 369.826245,62.812717 C369.42953,62.235026 368.820118,61.7408854 367.99801,61.3302951 C367.175903,60.9197049 366.102861,60.5664063 364.778884,60.2703993 C363.454908,59.9743924 362.539596,59.6640625 362.032948,59.3394097 C361.5263,59.0147569 361.272977,58.5325521 361.272977,57.8927951 C361.272977,57.2148438 361.545419,56.6657986 362.090305,56.2456597 C362.63519,55.8255208 363.390382,55.6154514 364.355881,55.6154514 C365.292702,55.6154514 366.069403,55.8780382 366.685984,56.4032118 C367.302565,56.9283854 367.610855,57.5538194 367.610855,58.2795139 L367.610855,58.2795139 L370.277926,58.2795139 C370.277926,56.8663194 369.730651,55.7061632 368.6361,54.7990451 C367.541549,53.8919271 366.11481,53.4383681 364.355881,53.4383681 C362.682987,53.4383681 361.308824,53.8776042 360.233392,54.7560764 C359.157961,55.6345486 358.620245,56.7087674 358.620245,57.9787326 C358.620245,58.7426215 358.809043,59.4014757 359.186639,59.9552951 C359.564235,60.5091146 360.147358,60.9865451 360.936008,61.3875868 C361.724658,61.7886285 362.79053,62.1323785 364.133625,62.4188368 C365.47672,62.7052951 366.418321,63.046658 366.958426,63.4429253 C367.498532,63.8391927 367.768585,64.3953993 367.768585,65.1115451 C367.768585,65.7894965 367.465074,66.3313802 366.858053,66.7371962 C366.251031,67.1430122 365.445652,67.3459201 364.441916,67.3459201 C363.352145,67.3459201 362.47507,67.0857205 361.810692,66.5653212 C361.146315,66.0449219 360.790227,65.3407118 360.74243,64.452691 L360.74243,64.452691 L358.089698,64.452691 C358.089698,65.3693576 358.359751,66.2215712 358.899857,67.0093316 C359.439963,67.797092 360.187985,68.4105903 361.143925,68.8498264 C362.099864,69.2890625 363.199194,69.5086806 364.441916,69.5086806 Z" id="path-3"></path>
        <path d="M248.151883,105.888889 L252.61134,90.6922743 L252.941139,89.1024306 L253.270938,90.6922743 L257.572666,105.888889 L260.082007,105.888889 L265.143706,85.0347222 L262.376262,85.0347222 L259.135627,99.3003472 L258.691115,102.107639 L258.117551,99.5868056 L254.088267,85.0347222 L251.765334,85.0347222 L247.635675,99.5868056 L247.047773,102.06467 L246.646278,99.3146701 L243.348287,85.0347222 L240.595181,85.0347222 L245.642542,105.888889 L248.151883,105.888889 Z M272.098166,106.175347 C273.809297,106.175347 275.281444,105.53559 276.514606,104.256076 C276.6102,105.039062 276.734472,105.583333 276.887422,105.888889 L276.887422,105.888889 L279.669206,105.888889 L279.669206,105.659722 C279.305949,104.819444 279.124321,103.687934 279.124321,102.265191 L279.124321,102.265191 L279.124321,95.1323785 C279.086083,93.5664062 278.560316,92.3370226 277.547021,91.4442274 C276.533725,90.5514323 275.133273,90.1050347 273.345667,90.1050347 C272.217658,90.1050347 271.182854,90.3151042 270.241253,90.7352431 C269.299653,91.1553819 268.55402,91.7259115 268.004355,92.4468316 C267.45469,93.1677517 267.179857,93.9149306 267.179857,94.6883681 L267.179857,94.6883681 L269.846928,94.6883681 C269.846928,94.0104167 270.167168,93.4327257 270.807648,92.9552951 C271.448127,92.4778646 272.241557,92.2391493 273.187937,92.2391493 C274.268148,92.2391493 275.085477,92.5136719 275.639921,93.062717 C276.194366,93.6117622 276.471589,94.3493924 276.471589,95.2756076 L276.471589,95.2756076 L276.471589,96.4930556 L273.890552,96.4930556 C271.663213,96.4930556 269.935353,96.9394531 268.706971,97.8322483 C267.478588,98.7250434 266.864397,99.9782986 266.864397,101.592014 C266.864397,102.919271 267.354316,104.014974 268.334154,104.879123 C269.313992,105.743273 270.568663,106.175347 272.098166,106.175347 Z M272.485321,103.869358 C271.615416,103.869358 270.903241,103.635417 270.348797,103.167535 C269.794352,102.699653 269.517129,102.050347 269.517129,101.219618 C269.517129,99.3194444 271.142226,98.3693576 274.39242,98.3693576 L274.39242,98.3693576 L276.471589,98.3693576 L276.471589,101.549045 C276.13701,102.236545 275.596904,102.795139 274.851271,103.224826 C274.105639,103.654514 273.316989,103.869358 272.485321,103.869358 Z M284.859957,87.7847222 C285.376165,87.7847222 285.7681,87.6414931 286.035763,87.3550347 C286.303426,87.0685764 286.437257,86.7105035 286.437257,86.280816 C286.437257,85.8511285 286.303426,85.4882812 286.035763,85.1922743 C285.7681,84.8962674 285.376165,84.7482639 284.859957,84.7482639 C284.34375,84.7482639 283.954205,84.8962674 283.691321,85.1922743 C283.428438,85.4882812 283.296996,85.8511285 283.296996,86.280816 C283.296996,86.7105035 283.428438,87.0685764 283.691321,87.3550347 C283.954205,87.6414931 284.34375,87.7847222 284.859957,87.7847222 Z M286.164815,105.888889 L286.164815,90.3914931 L283.512083,90.3914931 L283.512083,105.888889 L286.164815,105.888889 Z M294.940339,106.175347 C295.599937,106.175347 296.278654,106.079861 296.97649,105.888889 L296.97649,105.888889 L296.97649,103.740451 C296.441164,103.855035 296.02055,103.912326 295.71465,103.912326 C295.093289,103.912326 294.653557,103.757161 294.395453,103.446832 C294.13735,103.136502 294.008298,102.671007 294.008298,102.050347 L294.008298,102.050347 L294.008298,92.4396701 L296.904794,92.4396701 L296.904794,90.3914931 L294.008298,90.3914931 L294.008298,86.6388889 L291.355566,86.6388889 L291.355566,90.3914931 L288.530765,90.3914931 L288.530765,92.4396701 L291.355566,92.4396701 L291.355566,102.050347 C291.355566,103.368056 291.656687,104.384983 292.258929,105.101128 C292.86117,105.817274 293.754974,106.175347 294.940339,106.175347 Z M310.154115,105.888889 L310.154115,83.8888889 L307.501383,83.8888889 L307.501383,105.888889 L310.154115,105.888889 Z M320.836738,106.175347 C323.436893,106.175347 325.38701,105.177517 326.687088,103.181858 L326.687088,103.181858 L325.06677,101.921441 C324.579241,102.551649 324.010457,103.057726 323.360418,103.43967 C322.710379,103.821615 321.91695,104.012587 320.980129,104.012587 C319.660933,104.012587 318.573552,103.542318 317.717986,102.60178 C316.86242,101.661241 316.415518,100.427083 316.377281,98.8993056 L316.377281,98.8993056 L326.887835,98.8993056 L326.887835,97.796441 C326.887835,95.3233507 326.32861,93.4231771 325.210161,92.0959201 C324.091712,90.7686632 322.523971,90.1050347 320.506939,90.1050347 C319.273777,90.1050347 318.12904,90.4463976 317.072727,91.1291233 C316.016414,91.811849 315.194306,92.7571615 314.606403,93.9650608 C314.0185,95.1729601 313.724549,96.5455729 313.724549,98.0828993 L313.724549,98.0828993 L313.724549,98.5698785 C313.724549,100.880642 314.384147,102.725911 315.703343,104.105686 C317.02254,105.48546 318.733671,106.175347 320.836738,106.175347 Z M324.235103,96.7222222 L316.463315,96.7222222 C316.635384,95.3185764 317.084676,94.2276476 317.81119,93.4494358 C318.537704,92.671224 319.436287,92.2821181 320.506939,92.2821181 C321.615829,92.2821181 322.495293,92.6521267 323.145332,93.3921441 C323.795371,94.1321615 324.158628,95.1753472 324.235103,96.5217014 L324.235103,96.5217014 L324.235103,96.7222222 Z M335.663359,106.175347 C337.431847,106.175347 338.870536,105.757595 339.979425,104.922092 C341.088315,104.086589 341.64276,102.976562 341.64276,101.592014 C341.64276,100.761285 341.444403,100.057075 341.047688,99.4793837 C340.650973,98.9016927 340.041562,98.4075521 339.219454,97.9969618 C338.397346,97.5863715 337.324304,97.2330729 336.000328,96.937066 C334.676351,96.641059 333.761039,96.3307292 333.254391,96.0060764 C332.747744,95.6814236 332.49442,95.1992188 332.49442,94.5594618 C332.49442,93.8815104 332.766862,93.3324653 333.311748,92.9123264 C333.856633,92.4921875 334.611826,92.2821181 335.577324,92.2821181 C336.514145,92.2821181 337.290846,92.5447049 337.907427,93.0698785 C338.524008,93.5950521 338.832298,94.2204861 338.832298,94.9461806 L338.832298,94.9461806 L341.499369,94.9461806 C341.499369,93.5329861 340.952094,92.3728299 339.857543,91.4657118 C338.762993,90.5585938 337.336253,90.1050347 335.577324,90.1050347 C333.90443,90.1050347 332.530267,90.5442708 331.454836,91.4227431 C330.379404,92.3012153 329.841688,93.375434 329.841688,94.6453993 C329.841688,95.4092882 330.030486,96.0681424 330.408082,96.6219618 C330.785678,97.1757812 331.368801,97.6532118 332.157451,98.0542535 C332.946101,98.4552951 334.011974,98.7990451 335.355068,99.0855035 C336.698163,99.3719618 337.639764,99.7133247 338.179869,100.109592 C338.719975,100.505859 338.990028,101.062066 338.990028,101.778212 C338.990028,102.456163 338.686517,102.998047 338.079496,103.403863 C337.472474,103.809679 336.667095,104.012587 335.663359,104.012587 C334.573588,104.012587 333.696513,103.752387 333.032136,103.231988 C332.367758,102.711589 332.01167,102.007378 331.963873,101.119358 L331.963873,101.119358 L329.311141,101.119358 C329.311141,102.036024 329.581194,102.888238 330.1213,103.675998 C330.661406,104.463759 331.409428,105.077257 332.365368,105.516493 C333.321307,105.955729 334.420638,106.175347 335.663359,106.175347 Z M350.80544,106.175347 C352.573928,106.175347 354.012616,105.757595 355.121506,104.922092 C356.230396,104.086589 356.784841,102.976562 356.784841,101.592014 C356.784841,100.761285 356.586483,100.057075 356.189769,99.4793837 C355.793054,98.9016927 355.183642,98.4075521 354.361534,97.9969618 C353.539426,97.5863715 352.466384,97.2330729 351.142408,96.937066 C349.818432,96.641059 348.90312,96.3307292 348.396472,96.0060764 C347.889824,95.6814236 347.6365,95.1992188 347.6365,94.5594618 C347.6365,93.8815104 347.908943,93.3324653 348.453829,92.9123264 C348.998714,92.4921875 349.753906,92.2821181 350.719405,92.2821181 C351.656226,92.2821181 352.432927,92.5447049 353.049507,93.0698785 C353.666088,93.5950521 353.974379,94.2204861 353.974379,94.9461806 L353.974379,94.9461806 L356.64145,94.9461806 C356.64145,93.5329861 356.094175,92.3728299 354.999624,91.4657118 C353.905073,90.5585938 352.478334,90.1050347 350.719405,90.1050347 C349.046511,90.1050347 347.672348,90.5442708 346.596916,91.4227431 C345.521484,92.3012153 344.983768,93.375434 344.983768,94.6453993 C344.983768,95.4092882 345.172566,96.0681424 345.550163,96.6219618 C345.927759,97.1757812 346.510882,97.6532118 347.299532,98.0542535 C348.088182,98.4552951 349.154054,98.7990451 350.497149,99.0855035 C351.840244,99.3719618 352.781844,99.7133247 353.32195,100.109592 C353.862056,100.505859 354.132109,101.062066 354.132109,101.778212 C354.132109,102.456163 353.828598,102.998047 353.221577,103.403863 C352.614555,103.809679 351.809176,104.012587 350.80544,104.012587 C349.715669,104.012587 348.838594,103.752387 348.174216,103.231988 C347.509838,102.711589 347.153751,102.007378 347.105954,101.119358 L347.105954,101.119358 L344.453222,101.119358 C344.453222,102.036024 344.723275,102.888238 345.263381,103.675998 C345.803487,104.463759 346.551509,105.077257 347.507449,105.516493 C348.463388,105.955729 349.562718,106.175347 350.80544,106.175347 Z" id="path-4"></path>
        <path d="M248.151883,142.555556 L252.61134,127.358941 L252.941139,125.769097 L253.270938,127.358941 L257.572666,142.555556 L260.082007,142.555556 L265.143706,121.701389 L262.376262,121.701389 L259.135627,135.967014 L258.691115,138.774306 L258.117551,136.253472 L254.088267,121.701389 L251.765334,121.701389 L247.635675,136.253472 L247.047773,138.731337 L246.646278,135.981337 L243.348287,121.701389 L240.595181,121.701389 L245.642542,142.555556 L248.151883,142.555556 Z M273.775839,142.842014 C276.375995,142.842014 278.326111,141.844184 279.626189,139.848524 L279.626189,139.848524 L278.005872,138.588108 C277.518342,139.218316 276.949558,139.724392 276.29952,140.106337 C275.649481,140.488281 274.856051,140.679253 273.91923,140.679253 C272.600034,140.679253 271.512653,140.208984 270.657087,139.268446 C269.801521,138.327908 269.35462,137.09375 269.316382,135.565972 L269.316382,135.565972 L279.826936,135.565972 L279.826936,134.463108 C279.826936,131.990017 279.267712,130.089844 278.149262,128.762587 C277.030813,127.43533 275.463073,126.771701 273.44604,126.771701 C272.212878,126.771701 271.068141,127.113064 270.011828,127.79579 C268.955515,128.478516 268.133407,129.423828 267.545504,130.631727 C266.957601,131.839627 266.66365,133.21224 266.66365,134.749566 L266.66365,134.749566 L266.66365,135.236545 C266.66365,137.547309 267.323248,139.392578 268.642445,140.772352 C269.961641,142.152127 271.672773,142.842014 273.775839,142.842014 Z M277.174204,133.388889 L269.402417,133.388889 C269.574486,131.985243 270.023777,130.894314 270.750291,130.116102 C271.476805,129.337891 272.375388,128.948785 273.44604,128.948785 C274.55493,128.948785 275.434394,129.318793 276.084433,130.058811 C276.734472,130.798828 277.097729,131.842014 277.174204,133.188368 L277.174204,133.188368 L277.174204,133.388889 Z M284.472802,124.451389 C284.989009,124.451389 285.380944,124.30816 285.648607,124.021701 C285.91627,123.735243 286.050102,123.37717 286.050102,122.947483 C286.050102,122.517795 285.91627,122.154948 285.648607,121.858941 C285.380944,121.562934 284.989009,121.414931 284.472802,121.414931 C283.956595,121.414931 283.567049,121.562934 283.304166,121.858941 C283.041283,122.154948 282.909841,122.517795 282.909841,122.947483 C282.909841,123.37717 283.041283,123.735243 283.304166,124.021701 C283.567049,124.30816 283.956595,124.451389 284.472802,124.451389 Z M285.777659,142.555556 L285.777659,127.05816 L283.124927,127.05816 L283.124927,142.555556 L285.777659,142.555556 Z M295.915397,148.657118 C297.92287,148.657118 299.521678,148.079427 300.711823,146.924045 C301.901968,145.768663 302.49704,144.188368 302.49704,142.18316 L302.49704,142.18316 L302.49704,127.05816 L300.073734,127.05816 L299.944682,128.77691 C298.883589,127.440104 297.406662,126.771701 295.513902,126.771701 C293.668939,126.771701 292.187233,127.48546 291.068784,128.912977 C289.950335,130.340495 289.39111,132.262153 289.39111,134.677951 C289.39111,137.198785 289.952725,139.18967 291.075954,140.650608 C292.199182,142.111545 293.668939,142.842014 295.485224,142.842014 C297.320628,142.842014 298.768876,142.230903 299.829969,141.008681 L299.829969,141.008681 L299.829969,142.340712 C299.829969,143.65842 299.469102,144.680122 298.747368,145.405816 C298.025633,146.13151 297.019507,146.494358 295.728989,146.494358 C294.084773,146.494358 292.693881,145.792535 291.556313,144.388889 L291.556313,144.388889 L290.17976,145.978733 C290.743765,146.809462 291.561093,147.463542 292.631745,147.940972 C293.702397,148.418403 294.796948,148.657118 295.915397,148.657118 Z M296.144822,140.593316 C294.854304,140.593316 293.850568,140.094401 293.133613,139.096571 C292.416659,138.098741 292.058181,136.726128 292.058181,134.978733 C292.058181,133.011719 292.421438,131.52691 293.147952,130.524306 C293.874466,129.521701 294.882982,129.020399 296.173501,129.020399 C297.798598,129.020399 299.01742,129.760417 299.829969,131.240451 L299.829969,131.240451 L299.829969,138.315972 C299.046099,139.834201 297.817716,140.593316 296.144822,140.593316 Z M309.150378,142.555556 L309.150378,131.512587 C309.513635,130.767795 310.020283,130.166233 310.670322,129.707899 C311.320361,129.249566 312.075553,129.020399 312.935899,129.020399 C313.996991,129.020399 314.778472,129.28776 315.28034,129.822483 C315.782208,130.357205 316.037922,131.18316 316.047482,132.300347 L316.047482,132.300347 L316.047482,142.555556 L318.700214,142.555556 L318.700214,132.31467 C318.671535,128.619358 317.01776,126.771701 313.738888,126.771701 C311.855687,126.771701 310.326184,127.492622 309.150378,128.934462 L309.150378,128.934462 L309.150378,120.555556 L306.497647,120.555556 L306.497647,142.555556 L309.150378,142.555556 Z M332.824219,142.555556 L332.824219,120.555556 L330.171487,120.555556 L330.171487,142.555556 L332.824219,142.555556 Z M343.506842,142.842014 C346.106997,142.842014 348.057114,141.844184 349.357191,139.848524 L349.357191,139.848524 L347.736874,138.588108 C347.249345,139.218316 346.680561,139.724392 346.030522,140.106337 C345.380483,140.488281 344.587054,140.679253 343.650233,140.679253 C342.331036,140.679253 341.243655,140.208984 340.38809,139.268446 C339.532524,138.327908 339.085622,137.09375 339.047385,135.565972 L339.047385,135.565972 L349.557939,135.565972 L349.557939,134.463108 C349.557939,131.990017 348.998714,130.089844 347.880265,128.762587 C346.761816,127.43533 345.194075,126.771701 343.177043,126.771701 C341.943881,126.771701 340.799144,127.113064 339.74283,127.79579 C338.686517,128.478516 337.864409,129.423828 337.276507,130.631727 C336.688604,131.839627 336.394653,133.21224 336.394653,134.749566 L336.394653,134.749566 L336.394653,135.236545 C336.394653,137.547309 337.054251,139.392578 338.373447,140.772352 C339.692644,142.152127 341.403775,142.842014 343.506842,142.842014 Z M346.905207,133.388889 L339.133419,133.388889 C339.305488,131.985243 339.75478,130.894314 340.481294,130.116102 C341.207808,129.337891 342.106391,128.948785 343.177043,128.948785 C344.285933,128.948785 345.165397,129.318793 345.815436,130.058811 C346.465475,130.798828 346.828732,131.842014 346.905207,133.188368 L346.905207,133.188368 L346.905207,133.388889 Z M358.333463,142.842014 C360.101951,142.842014 361.54064,142.424262 362.649529,141.588759 C363.758419,140.753255 364.312864,139.643229 364.312864,138.258681 C364.312864,137.427951 364.114507,136.723741 363.717792,136.14605 C363.321077,135.568359 362.711665,135.074219 361.889557,134.663628 C361.06745,134.253038 359.994408,133.89974 358.670431,133.603733 C357.346455,133.307726 356.431143,132.997396 355.924495,132.672743 C355.417847,132.34809 355.164523,131.865885 355.164523,131.226128 C355.164523,130.548177 355.436966,129.999132 355.981852,129.578993 C356.526737,129.158854 357.281929,128.948785 358.247428,128.948785 C359.184249,128.948785 359.96095,129.211372 360.577531,129.736545 C361.194112,130.261719 361.502402,130.887153 361.502402,131.612847 L361.502402,131.612847 L364.169473,131.612847 C364.169473,130.199653 363.622198,129.039497 362.527647,128.132378 C361.433096,127.22526 360.006357,126.771701 358.247428,126.771701 C356.574534,126.771701 355.200371,127.210937 354.124939,128.08941 C353.049507,128.967882 352.511792,130.042101 352.511792,131.312066 C352.511792,132.075955 352.70059,132.734809 353.078186,133.288628 C353.455782,133.842448 354.038905,134.319878 354.827555,134.72092 C355.616205,135.121962 356.682077,135.465712 358.025172,135.75217 C359.368267,136.038628 360.309868,136.379991 360.849973,136.776259 C361.390079,137.172526 361.660132,137.728733 361.660132,138.444878 C361.660132,139.12283 361.356621,139.664714 360.7496,140.07053 C360.142578,140.476345 359.337199,140.679253 358.333463,140.679253 C357.243692,140.679253 356.366617,140.419054 355.702239,139.898655 C355.037862,139.378255 354.681774,138.674045 354.633977,137.786024 L354.633977,137.786024 L351.981245,137.786024 C351.981245,138.702691 352.251298,139.554905 352.791404,140.342665 C353.33151,141.130425 354.079532,141.743924 355.035472,142.18316 C355.991411,142.622396 357.090741,142.842014 358.333463,142.842014 Z M373.475543,142.842014 C375.244031,142.842014 376.68272,142.424262 377.79161,141.588759 C378.9005,140.753255 379.454945,139.643229 379.454945,138.258681 C379.454945,137.427951 379.256587,136.723741 378.859872,136.14605 C378.463158,135.568359 377.853746,135.074219 377.031638,134.663628 C376.20953,134.253038 375.136488,133.89974 373.812512,133.603733 C372.488536,133.307726 371.573224,132.997396 371.066576,132.672743 C370.559928,132.34809 370.306604,131.865885 370.306604,131.226128 C370.306604,130.548177 370.579047,129.999132 371.123932,129.578993 C371.668818,129.158854 372.42401,128.948785 373.389509,128.948785 C374.32633,128.948785 375.10303,129.211372 375.719611,129.736545 C376.336192,130.261719 376.644483,130.887153 376.644483,131.612847 L376.644483,131.612847 L379.311554,131.612847 C379.311554,130.199653 378.764278,129.039497 377.669728,128.132378 C376.575177,127.22526 375.148438,126.771701 373.389509,126.771701 C371.716615,126.771701 370.342452,127.210937 369.26702,128.08941 C368.191588,128.967882 367.653872,130.042101 367.653872,131.312066 C367.653872,132.075955 367.84267,132.734809 368.220266,133.288628 C368.597862,133.842448 369.180986,134.319878 369.969636,134.72092 C370.758286,135.121962 371.824158,135.465712 373.167253,135.75217 C374.510348,136.038628 375.451948,136.379991 375.992054,136.776259 C376.53216,137.172526 376.802213,137.728733 376.802213,138.444878 C376.802213,139.12283 376.498702,139.664714 375.89168,140.07053 C375.284659,140.476345 374.47928,140.679253 373.475543,140.679253 C372.385773,140.679253 371.508698,140.419054 370.84432,139.898655 C370.179942,139.378255 369.823855,138.674045 369.776058,137.786024 L369.776058,137.786024 L367.123326,137.786024 C367.123326,138.702691 367.393379,139.554905 367.933485,140.342665 C368.47359,141.130425 369.221613,141.743924 370.177552,142.18316 C371.133492,142.622396 372.232822,142.842014 373.475543,142.842014 Z" id="path-5"></path>
    </defs>
    <g id="Symbols" stroke="none" stroke-width="1" fill="none" fill-rule="evenodd">
        <g id="Lazy-Keto-Main-SVG">
            <g id="Lazy" fill-rule="nonzero">
                <use fill="#000000" xlink:href="#path-1"></use>
                <use fill="#F5FCEE" xlink:href="#path-1"></use>
            </g>
            <g id="Keto" fill-rule="nonzero">
                <use fill="#000000" xlink:href="#path-2"></use>
                <use fill="#F5FCEE" xlink:href="#path-2"></use>
            </g>
            <rect id="Rectangle" fill="#F5FCEE" x="212.801242" y="0.777777778" width="7.34161491" height="180.888889"></rect>
            <g id="Thinkless" fill-rule="nonzero">
                <use fill="#000000" xlink:href="#path-3"></use>
                <use fill="#F5FCEE" xlink:href="#path-3"></use>
            </g>
            <g id="Waitless" fill-rule="nonzero">
                <use fill="#000000" xlink:href="#path-4"></use>
                <use fill="#F5FCEE" xlink:href="#path-4"></use>
            </g>
            <g id="Weighless" fill-rule="nonzero">
                <use fill="#000000" xlink:href="#path-5"></use>
                <use fill="#F5FCEE" xlink:href="#path-5"></use>
            </g>
        </g>
    </g>
</svg>