
<svg viewBox="0 0 1440 301" version="1.1" xmlns="http://www.w3.org/2000/svg" xmlns:xlink="http://www.w3.org/1999/xlink">
    <title>Path</title>
    <defs>
        <filter x="-5.1%" y="-11.2%" width="110.2%" height="122.4%" filterUnits="objectBoundingBox" id="filter-1">
            <feOffset dx="0" dy="0" in="SourceAlpha" result="shadowOffsetOuter1"></feOffset>
            <feGaussianBlur stdDeviation="4" in="shadowOffsetOuter1" result="shadowBlurOuter1"></feGaussianBlur>
            <feColorMatrix values="0 0 0 0 0   0 0 0 0 0   0 0 0 0 0  0 0 0 0.0775786713 0" type="matrix" in="shadowBlurOuter1" result="shadowMatrixOuter1"></feColorMatrix>
            <feMerge>
                <feMergeNode in="shadowMatrixOuter1"></feMergeNode>
                <feMergeNode in="SourceGraphic"></feMergeNode>
            </feMerge>
        </filter>
        <path d="M34.4101293,58.2301587 L34.4101293,52.0994921 L9.89892429,52.0994921 L9.89892429,7.65215873 L2.46896528,7.65215873 L2.46896528,58.2301587 L34.4101293,58.2301587 Z M54.4020808,59.0329841 C55.9850961,59.0329841 57.5808777,58.972164 59.1894255,58.8505238 C60.7979734,58.7288836 62.2916249,58.5950794 63.6703802,58.4491111 C65.0491355,58.3031429 66.287462,58.1450106 67.3853597,57.9747143 C68.4832574,57.804418 69.3385963,57.6706138 69.9513765,57.5733016 L69.9513765,57.5733016 L69.9513765,33.8534603 C69.9513765,31.7125926 69.6960514,29.7541852 69.1854013,27.9782381 C68.6747512,26.202291 67.8194123,24.6696243 66.6193845,23.3802381 C65.4193568,22.0908519 63.8363415,21.0934021 61.8703386,20.3878889 C59.9043357,19.6823757 57.4915139,19.329619 54.6318734,19.329619 C52.1296879,19.329619 49.8062299,19.5120794 47.6614994,19.877 C45.516769,20.2419206 43.9848187,20.6190053 43.0656485,21.008254 L43.0656485,21.008254 L43.9082212,26.6280317 C44.7763264,26.2874392 46.0912504,25.9590106 47.8529932,25.642746 C49.6147361,25.3264815 51.6701028,25.1683492 54.0190932,25.1683492 C55.8574336,25.1683492 57.3510852,25.4237937 58.5000479,25.9346825 C59.6490106,26.4455714 60.5554146,27.1267566 61.2192597,27.9782381 C61.8831048,28.8297196 62.3426899,29.8028413 62.598015,30.8976032 C62.85334,31.9923651 62.9810025,33.099291 62.9810025,34.218381 L62.9810025,34.218381 L62.9810025,36.1159683 C62.7767425,36.0673122 62.4192874,35.994328 61.9086373,35.8970159 C61.3979872,35.7997037 60.7979734,35.6902275 60.1085957,35.5685873 C59.4192181,35.4469471 58.6915417,35.3496349 57.9255665,35.2766508 C57.1595914,35.2036667 56.4191487,35.1671746 55.7042386,35.1671746 C53.4573781,35.1671746 51.3126477,35.386127 49.2700473,35.8240317 C47.2274469,36.2619365 45.4401715,36.9431217 43.9082212,37.8675873 C42.3762709,38.7920529 41.1634769,40.008455 40.2698392,41.5167937 C39.3762015,43.0251323 38.9293827,44.8254074 38.9293827,46.917619 C38.9293827,49.1071429 39.3123703,50.9804021 40.0783454,52.5373968 C40.8443206,54.0943915 41.9166858,55.3472857 43.2954411,56.2960794 C44.6741963,57.244873 46.3082767,57.9382222 48.1976821,58.376127 C50.0870874,58.8140317 52.1552204,59.0329841 54.4020808,59.0329841 Z M55.2446535,53.3402222 C52.4360779,53.3402222 50.21475,52.8658254 48.5806696,51.9170317 C46.9465893,50.9682381 46.1295491,49.2774392 46.1295491,46.8446349 C46.1295491,45.5309206 46.4614717,44.4726508 47.1253168,43.6698254 C47.789162,42.867 48.6189684,42.2344709 49.6147361,41.7722381 C50.6105038,41.3100053 51.7084015,41.0059048 52.9084293,40.8599365 C54.108457,40.7139683 55.2446535,40.6409841 56.3170187,40.6409841 C57.951099,40.6409841 59.3426206,40.7261323 60.4915833,40.8964286 C61.640546,41.0667249 62.4703524,41.2735132 62.9810025,41.5167937 L62.9810025,41.5167937 L62.9810025,52.8293333 C62.1128974,53.0239577 61.0277659,53.1577619 59.7256081,53.230746 C58.4234504,53.3037302 56.9297988,53.3402222 55.2446535,53.3402222 Z M108.786317,58.2301587 L108.786317,52.5373968 L86.8794274,52.5373968 C88.4113777,50.0559365 90.1858868,47.452836 92.2029547,44.7280952 C94.2200226,42.0033545 96.2370905,39.400254 98.2541585,36.9187937 C100.271226,34.4373333 102.160632,32.1748254 103.922375,30.1312698 C105.684117,28.0877143 107.101171,26.5063915 108.173537,25.3873016 L108.173537,25.3873016 L108.173537,20.2784127 L79.4494684,20.2784127 L79.4494684,25.9711746 L99.1350299,25.9711746 C97.7562746,27.5281693 96.1349605,29.4379206 94.2710876,31.7004286 C92.4072148,33.9629365 90.4922769,36.3714127 88.526274,38.9258571 C86.5602711,41.4803016 84.6836319,44.0469101 82.8963566,46.6256825 C81.1090812,49.204455 79.6026634,51.5642751 78.3771032,53.7051429 L78.3771032,53.7051429 L78.3771032,58.2301587 L108.786317,58.2301587 Z M118.054616,71.9511746 C120.148282,71.9511746 122.024921,71.7078942 123.684534,71.2213333 C125.344146,70.7347725 126.837798,69.9806032 128.165488,68.9588254 C129.493179,67.9370476 130.705973,66.6354974 131.80387,65.0541746 C132.901768,63.4728519 133.961367,61.5874286 134.982667,59.3979048 C137.586983,53.6564868 140.012571,47.489328 142.259431,40.8964286 C144.506292,34.3035291 146.548892,27.4308571 148.387232,20.2784127 L148.387232,20.2784127 L141.033871,20.2784127 C139.757246,25.5819259 138.404023,30.7394709 136.974203,35.7510476 C135.544382,40.7626243 133.859237,45.8228571 131.918767,50.931746 C130.693206,48.4502857 129.518711,45.8715132 128.395281,43.1954286 C127.271851,40.5193439 126.225018,37.8432593 125.254783,35.1671746 C124.284547,32.4910899 123.403676,29.8879894 122.612168,27.357873 C121.820661,24.8277566 121.144049,22.4679365 120.582334,20.2784127 L120.582334,20.2784127 L112.922583,20.2784127 C114.760923,26.9929524 117.071615,33.6223439 119.854658,40.1665873 C122.637701,46.7108307 125.63777,52.9023175 128.854866,58.7410476 C127.578241,61.4171323 126.14842,63.3512116 124.565405,64.5432857 C122.98239,65.7353598 120.786594,66.3313968 117.978019,66.3313968 C117.109914,66.3313968 116.229042,66.2219206 115.335404,66.0029683 C114.441767,65.7840159 113.71409,65.5528995 113.152375,65.309619 L113.152375,65.309619 L111.850217,70.7834286 C112.054477,70.8807407 112.399166,71.002381 112.884284,71.1483492 C113.369402,71.2943175 113.905584,71.4281217 114.492832,71.5497619 C115.080079,71.6714021 115.680093,71.7687143 116.292873,71.8416984 C116.905653,71.9146825 117.492901,71.9511746 118.054616,71.9511746 Z" id="path-2"></path>
        <path d="M7.8832002,129.293651 L7.8832002,105.281873 C10.0279306,106.546931 12.2364923,108.079598 14.5088853,109.879873 C16.7812782,111.680148 19.0281387,113.638556 21.2494667,115.755095 C23.4707946,117.871635 25.5772263,120.085487 27.5687617,122.396651 C29.5602971,124.707815 31.3220399,127.006815 32.8539903,129.293651 L32.8539903,129.293651 L41.586107,129.293651 C40.2073517,127.006815 38.4839076,124.598339 36.4157747,122.068222 C34.3476418,119.538106 32.1390801,117.056646 29.7900896,114.623841 C27.4410992,112.191037 25.0410437,109.904201 22.5899232,107.763333 C20.1388027,105.622466 17.8153447,103.82219 15.6195493,102.362508 C17.5089546,100.610889 19.5260226,98.7133016 21.670753,96.669746 C23.8154834,94.6261905 25.9729801,92.5461429 28.1432431,90.4296032 C30.313506,88.3130635 32.3944052,86.2451799 34.3859406,84.2259524 C36.377476,82.2067249 38.1647513,80.3699577 39.7477667,78.7156508 L39.7477667,78.7156508 L30.7858573,78.7156508 C29.5092321,80.1266772 27.938983,81.7688201 26.0751101,83.6420794 C24.2112373,85.5153386 22.2324681,87.473746 20.1388027,89.5173016 C18.0451373,91.5608571 15.9259393,93.5922487 13.7812089,95.6114762 C11.6364785,97.6307037 9.67047556,99.4431429 7.8832002,101.048794 L7.8832002,101.048794 L7.8832002,78.7156508 L0.45324119,78.7156508 L0.45324119,129.293651 L7.8832002,129.293651 Z M64.4121667,130.16946 C67.1696772,130.16946 69.633564,129.92618 71.8038269,129.439619 C73.9740898,128.953058 75.4932739,128.490825 76.3613791,128.052921 L76.3613791,128.052921 L75.3656114,122.360159 C74.4975062,122.749407 73.2081147,123.15082 71.4974368,123.564397 C69.786759,123.977974 67.6803273,124.184762 65.1781418,124.184762 C60.7354859,124.184762 57.4673252,123.162984 55.3736598,121.119429 C53.2799944,119.075873 52.0799667,116.083524 51.7735766,112.142381 L51.7735766,112.142381 L79.0422921,112.142381 C79.0933571,111.753132 79.1188896,111.327392 79.1188896,110.865159 L79.1188896,110.865159 L79.1188896,109.733905 C79.1188896,103.213989 77.6890693,98.360545 74.8294288,95.1735714 C71.9697882,91.9865979 67.8590549,90.3931111 62.4972288,90.3931111 C60.1993033,90.3931111 57.9524428,90.8066878 55.7566474,91.6338413 C53.560852,92.4609947 51.6203816,93.7017249 49.9352362,95.3560317 C48.2500909,97.0103386 46.8968681,99.0903862 45.8755679,101.596175 C44.8542677,104.101963 44.3436176,107.033492 44.3436176,110.390762 C44.3436176,113.261471 44.7393714,115.901063 45.5308791,118.30954 C46.3223867,120.718016 47.5351807,122.798063 49.1692611,124.549683 C50.8033414,126.301302 52.8842406,127.675836 55.4119586,128.673286 C57.9396766,129.670735 60.939746,130.16946 64.4121667,130.16946 Z M71.6889306,106.668571 L51.9267716,106.668571 C52.0799667,105.354857 52.399123,104.065471 52.8842406,102.800413 C53.3693582,101.535354 54.0459696,100.416265 54.9140747,99.4431429 C55.7821799,98.4700212 56.8417789,97.6793598 58.0928716,97.0711587 C59.3439644,96.4629577 60.7865509,96.1588571 62.4206313,96.1588571 C65.3313368,96.1588571 67.6164961,97.1441429 69.2761089,99.1147143 C70.9357217,101.085286 71.7399956,103.603238 71.6889306,106.668571 L71.6889306,106.668571 Z M102.787522,130.096476 C105.085447,130.096476 107.128048,129.841032 108.915323,129.330143 C110.702599,128.819254 111.953691,128.393513 112.668601,128.052921 L112.668601,128.052921 L111.289846,122.433143 C110.779196,122.627767 109.872792,122.956196 108.570634,123.418429 C107.268477,123.880661 105.545032,124.111778 103.400302,124.111778 C102.174742,124.111778 101.102377,123.96581 100.183206,123.673873 C99.2640362,123.381937 98.4980611,122.883212 97.8852809,122.177698 C97.2725008,121.472185 96.8129157,120.499063 96.5065257,119.258333 C96.2001356,118.017603 96.0469406,116.448444 96.0469406,114.550857 L96.0469406,114.550857 L96.0469406,97.0346667 L111.136651,97.0346667 L111.136651,91.3419048 L96.0469406,91.3419048 L96.0469406,79.5914603 L88.9233716,80.7592063 L88.9233716,114.623841 C88.9233716,117.153958 89.1403979,119.379974 89.5744505,121.301889 C90.0085031,123.223804 90.761712,124.841619 91.8340772,126.155333 C92.9064424,127.469048 94.3234965,128.454333 96.0852393,129.11119 C97.8469822,129.768048 100.081076,130.096476 102.787522,130.096476 Z M135.571259,130.242444 C138.277704,130.242444 140.77989,129.768048 143.077815,128.819254 C145.375741,127.87046 147.35451,126.520254 149.014123,124.768635 C150.673735,123.017016 151.963127,120.924804 152.882297,118.492 C153.801467,116.059196 154.261052,113.334455 154.261052,110.317778 C154.261052,107.349757 153.801467,104.63718 152.882297,102.180048 C151.963127,99.7229153 150.673735,97.6185397 149.014123,95.8669206 C147.35451,94.1153016 145.375741,92.7650952 143.077815,91.8163016 C140.77989,90.8675079 138.277704,90.3931111 135.571259,90.3931111 C132.864813,90.3931111 130.362628,90.8675079 128.064702,91.8163016 C125.766777,92.7650952 123.788007,94.1153016 122.128395,95.8669206 C120.468782,97.6185397 119.17939,99.7229153 118.26022,102.180048 C117.34105,104.63718 116.881465,107.349757 116.881465,110.317778 C116.881465,113.334455 117.34105,116.059196 118.26022,118.492 C119.17939,120.924804 120.468782,123.017016 122.128395,124.768635 C123.788007,126.520254 125.766777,127.87046 128.064702,128.819254 C130.362628,129.768048 132.864813,130.242444 135.571259,130.242444 Z M135.571259,124.257746 C132.098838,124.257746 129.354094,123.004852 127.337026,120.499063 C125.319958,117.993275 124.311424,114.599513 124.311424,110.317778 C124.311424,106.036042 125.319958,102.64228 127.337026,100.136492 C129.354094,97.6307037 132.098838,96.3778095 135.571259,96.3778095 C139.043679,96.3778095 141.788424,97.6307037 143.805492,100.136492 C145.822559,102.64228 146.831093,106.036042 146.831093,110.317778 C146.831093,114.599513 145.822559,117.993275 143.805492,120.499063 C141.788424,123.004852 139.043679,124.257746 135.571259,124.257746 Z" id="path-3"></path>
        <path d="M205.804283,54.3888889 L205.804283,39.78156 L211.331776,39.78156 L211.331776,38.0034722 L198.032722,38.0034722 L198.032722,39.78156 L203.548404,39.78156 L203.548404,54.3888889 L205.804283,54.3888889 Z M215.725425,54.3888889 L215.725425,45.7122706 C216.024634,45.1270771 216.441952,44.6544209 216.977378,44.2943018 C217.512805,43.9341828 218.134845,43.7541233 218.843498,43.7541233 C219.717503,43.7541233 220.361197,43.9641927 220.774577,44.3843316 C221.187958,44.8044705 221.398586,45.453435 221.40646,46.3312252 L221.40646,46.3312252 L221.40646,54.3888889 L223.591473,54.3888889 L223.591473,46.3424789 C223.567851,43.4390191 222.205663,41.9872892 219.504907,41.9872892 C217.953745,41.9872892 216.693917,42.5537264 215.725425,43.6866009 L215.725425,43.6866009 L215.725425,37.1031746 L213.540411,37.1031746 L213.540411,54.3888889 L215.725425,54.3888889 Z M228.162285,40.1641865 C228.587477,40.1641865 228.910308,40.0516493 229.130777,39.8265749 C229.351247,39.6015005 229.461482,39.3201575 229.461482,38.9825459 C229.461482,38.6449343 229.351247,38.35984 229.130777,38.1272631 C228.910308,37.8946863 228.587477,37.7783978 228.162285,37.7783978 C227.737093,37.7783978 227.416231,37.8946863 227.199698,38.1272631 C226.983165,38.35984 226.874899,38.6449343 226.874899,38.9825459 C226.874899,39.3201575 226.983165,39.6015005 227.199698,39.8265749 C227.416231,40.0516493 227.737093,40.1641865 228.162285,40.1641865 Z M229.237075,54.3888889 L229.237075,42.2123636 L227.052062,42.2123636 L227.052062,54.3888889 L229.237075,54.3888889 Z M234.91811,54.3888889 L234.91811,45.7122706 C235.217319,45.1270771 235.634637,44.6544209 236.170064,44.2943018 C236.705491,43.9341828 237.32753,43.7541233 238.036183,43.7541233 C238.910189,43.7541233 239.553882,43.9641927 239.967263,44.3843316 C240.380644,44.8044705 240.591271,45.453435 240.599145,46.3312252 L240.599145,46.3312252 L240.599145,54.3888889 L242.784159,54.3888889 L242.784159,46.3424789 C242.760537,43.4390191 241.398348,41.9872892 238.697593,41.9872892 C237.122808,41.9872892 235.847233,42.5724826 234.870867,43.7428695 L234.870867,43.7428695 L234.800001,42.2123636 L232.733097,42.2123636 L232.733097,54.3888889 L234.91811,54.3888889 Z M248.276219,54.3888889 L248.276219,50.1124752 L249.646282,48.750775 L254.098985,54.3888889 L256.661946,54.3888889 L251.110831,47.2990451 L256.083213,42.2123636 L253.425764,42.2123636 L249.445497,46.218688 L248.276219,47.5578807 L248.276219,37.1031746 L246.091206,37.1031746 L246.091206,54.3888889 L248.276219,54.3888889 Z M266.701197,54.3888889 L266.701197,37.1031746 L264.516184,37.1031746 L264.516184,54.3888889 L266.701197,54.3888889 Z M275.500305,54.6139633 C277.642012,54.6139633 279.248292,53.8299541 280.319146,52.2619358 L280.319146,52.2619358 L278.984516,51.2716084 C278.582946,51.7667721 278.114448,52.1644035 277.579021,52.4645027 C277.043594,52.7646019 276.390059,52.9146515 275.618414,52.9146515 C274.531813,52.9146515 273.636154,52.5451544 272.931438,51.8061601 C272.226722,51.0671658 271.858616,50.0974702 271.827121,48.8970734 L271.827121,48.8970734 L280.484498,48.8970734 L280.484498,48.030537 C280.484498,46.0873946 280.023874,44.594401 279.102625,43.5515563 C278.181376,42.5087116 276.890053,41.9872892 275.228655,41.9872892 C274.212919,41.9872892 273.270017,42.2555029 272.399949,42.7919302 C271.52988,43.3283575 270.852723,44.0711031 270.368477,45.0201668 C269.88423,45.9692305 269.642107,47.0477121 269.642107,48.2556114 L269.642107,48.2556114 L269.642107,48.6382378 C269.642107,50.453838 270.185408,51.9036923 271.272009,52.9878007 C272.35861,54.0719091 273.768043,54.6139633 275.500305,54.6139633 Z M278.299485,47.1865079 L271.897986,47.1865079 C272.039717,46.0836434 272.409791,45.226485 273.008209,44.6150329 C273.606627,44.0035807 274.346776,43.6978547 275.228655,43.6978547 C276.14203,43.6978547 276.866431,43.9885758 277.401858,44.570018 C277.937284,45.1514602 278.236493,45.9711062 278.299485,47.0289559 L278.299485,47.0289559 L278.299485,47.1865079 Z M287.712759,54.6139633 C289.169434,54.6139633 290.35446,54.2857298 291.267835,53.6292628 C292.18121,52.9727958 292.637897,52.1006324 292.637897,51.0127728 C292.637897,50.360057 292.474513,49.8067491 292.147746,49.3528491 C291.820978,48.898949 291.319015,48.5106957 290.641858,48.188089 C289.964701,47.8654824 289.080853,47.5878906 287.990315,47.3553137 C286.899776,47.1227369 286.145848,46.8789063 285.72853,46.6238219 C285.311213,46.3687376 285.102554,45.9898624 285.102554,45.4871962 C285.102554,44.9545201 285.32696,44.5231275 285.775774,44.1930184 C286.224588,43.8629092 286.846627,43.6978547 287.641894,43.6978547 C288.413538,43.6978547 289.053294,43.9041729 289.561162,44.3168093 C290.06903,44.7294457 290.322964,45.2208581 290.322964,45.7910466 L290.322964,45.7910466 L292.519788,45.7910466 C292.519788,44.6806796 292.069006,43.7691282 291.167442,43.0563926 C290.265878,42.343657 289.090695,41.9872892 287.641894,41.9872892 C286.263957,41.9872892 285.132081,42.3324033 284.246265,43.0226314 C283.360448,43.7128596 282.91754,44.5568886 282.91754,45.5547185 C282.91754,46.1549169 283.07305,46.672588 283.38407,47.1077319 C283.69509,47.5428757 284.175399,47.9179998 284.824998,48.2331039 C285.474596,48.5482081 286.352539,48.8182974 287.458825,49.0433718 C288.565111,49.2684462 289.340692,49.5366598 289.785569,49.8480128 C290.230445,50.1593657 290.452884,50.5963852 290.452884,51.1590712 C290.452884,51.6917473 290.202887,52.117513 289.702893,52.4363684 C289.202899,52.7552238 288.539521,52.9146515 287.712759,52.9146515 C286.815132,52.9146515 286.092699,52.710209 285.545462,52.3013238 C284.998224,51.8924386 284.704921,51.3391307 284.665551,50.6414 L284.665551,50.6414 L282.480538,50.6414 C282.480538,51.3616381 282.702976,52.0312345 283.147852,52.6501891 C283.592729,53.2691437 284.208863,53.7511781 284.996256,54.0962922 C285.783648,54.4414063 286.689149,54.6139633 287.712759,54.6139633 Z M300.185052,54.6139633 C301.641727,54.6139633 302.826753,54.2857298 303.740128,53.6292628 C304.653503,52.9727958 305.11019,52.1006324 305.11019,51.0127728 C305.11019,50.360057 304.946806,49.8067491 304.620038,49.3528491 C304.293271,48.898949 303.791308,48.5106957 303.114151,48.188089 C302.436993,47.8654824 301.553146,47.5878906 300.462607,47.3553137 C299.372069,47.1227369 298.618141,46.8789063 298.200823,46.6238219 C297.783505,46.3687376 297.574846,45.9898624 297.574846,45.4871962 C297.574846,44.9545201 297.799253,44.5231275 298.248067,44.1930184 C298.69688,43.8629092 299.31892,43.6978547 300.114186,43.6978547 C300.885831,43.6978547 301.525587,43.9041729 302.033455,44.3168093 C302.541323,44.7294457 302.795257,45.2208581 302.795257,45.7910466 L302.795257,45.7910466 L304.992081,45.7910466 C304.992081,44.6806796 304.541299,43.7691282 303.639735,43.0563926 C302.738171,42.343657 301.562988,41.9872892 300.114186,41.9872892 C298.73625,41.9872892 297.604374,42.3324033 296.718557,43.0226314 C295.832741,43.7128596 295.389833,44.5568886 295.389833,45.5547185 C295.389833,46.1549169 295.545343,46.672588 295.856363,47.1077319 C296.167383,47.5428757 296.647692,47.9179998 297.297291,48.2331039 C297.946889,48.5482081 298.824832,48.8182974 299.931118,49.0433718 C301.037404,49.2684462 301.812985,49.5366598 302.257862,49.8480128 C302.702738,50.1593657 302.925177,50.5963852 302.925177,51.1590712 C302.925177,51.6917473 302.67518,52.117513 302.175186,52.4363684 C301.675191,52.7552238 301.011814,52.9146515 300.185052,52.9146515 C299.287425,52.9146515 298.564992,52.710209 298.017755,52.3013238 C297.470517,51.8924386 297.177213,51.3391307 297.137844,50.6414 L297.137844,50.6414 L294.95283,50.6414 C294.95283,51.3616381 295.175269,52.0312345 295.620145,52.6501891 C296.065022,53.2691437 296.681156,53.7511781 297.468548,54.0962922 C298.255941,54.4414063 299.161442,54.6139633 300.185052,54.6139633 Z" id="path-4"></path>
        <path d="M204.398788,83.1984127 L208.071972,71.2582155 L208.343623,70.0090526 L208.615273,71.2582155 L212.158538,83.1984127 L214.225443,83.1984127 L218.394684,66.812996 L216.115184,66.812996 L213.445924,78.0217014 L213.079787,80.2274306 L212.607352,78.2467758 L209.288493,66.812996 L207.37513,66.812996 L203.973596,78.2467758 L203.48935,80.1936694 L203.158645,78.0329551 L200.442142,66.812996 L198.174452,66.812996 L202.331883,83.1984127 L204.398788,83.1984127 Z M224.122963,83.4234871 C225.532395,83.4234871 226.744979,82.9208209 227.760715,81.9154886 C227.839454,82.530692 227.941815,82.9583333 228.067798,83.1984127 L228.067798,83.1984127 L230.359109,83.1984127 L230.359109,83.0183532 C230.0599,82.3581349 229.910296,81.469091 229.910296,80.3512215 L229.910296,80.3512215 L229.910296,74.7468688 C229.8788,73.5164621 229.445734,72.5505177 228.611099,71.8490358 C227.776463,71.1475539 226.622933,70.796813 225.15051,70.796813 C224.221387,70.796813 223.369035,70.9618676 222.593453,71.2919767 C221.817872,71.6220858 221.203706,72.070359 220.750956,72.6367963 C220.298205,73.2032335 220.07183,73.7903026 220.07183,74.3980035 L220.07183,74.3980035 L222.268654,74.3980035 C222.268654,73.8653274 222.532431,73.4114273 223.059983,73.0363033 C223.587536,72.6611793 224.241072,72.4736173 225.02059,72.4736173 C225.910343,72.4736173 226.583564,72.6893136 227.040251,73.1207062 C227.496939,73.5520988 227.725282,74.1316654 227.725282,74.859406 L227.725282,74.859406 L227.725282,75.8159722 L225.599323,75.8159722 C223.764699,75.8159722 222.341488,76.1667132 221.329689,76.8681951 C220.31789,77.569677 219.81199,78.5543775 219.81199,79.8222966 C219.81199,80.8651414 220.215529,81.726051 221.022606,82.4050254 C221.829683,83.0839999 222.863135,83.4234871 224.122963,83.4234871 Z M224.441857,81.6116381 C223.72533,81.6116381 223.138723,81.4278274 222.682035,81.0602059 C222.225348,80.6925843 221.997004,80.1824157 221.997004,79.5296999 C221.997004,78.0367063 223.335571,77.2902096 226.012704,77.2902096 L226.012704,77.2902096 L227.725282,77.2902096 L227.725282,79.7885355 C227.449695,80.328714 227.004818,80.7676091 226.390652,81.1052207 C225.776487,81.4428323 225.126888,81.6116381 224.441857,81.6116381 Z M234.634649,68.9737103 C235.059841,68.9737103 235.382672,68.8611731 235.603141,68.6360987 C235.823611,68.4110243 235.933846,68.1296813 235.933846,67.7920697 C235.933846,67.4544581 235.823611,67.1693638 235.603141,66.936787 C235.382672,66.7042101 235.059841,66.5879216 234.634649,66.5879216 C234.209457,66.5879216 233.888595,66.7042101 233.672062,66.936787 C233.455529,67.1693638 233.347263,67.4544581 233.347263,67.7920697 C233.347263,68.1296813 233.455529,68.4110243 233.672062,68.6360987 C233.888595,68.8611731 234.209457,68.9737103 234.634649,68.9737103 Z M235.709439,83.1984127 L235.709439,71.0218874 L233.524426,71.0218874 L233.524426,83.1984127 L235.709439,83.1984127 Z M242.9377,83.4234871 C243.481001,83.4234871 244.040049,83.3484623 244.614845,83.1984127 L244.614845,83.1984127 L244.614845,81.5103547 C244.173906,81.6003844 243.827453,81.6453993 243.575488,81.6453993 C243.063683,81.6453993 242.701482,81.523484 242.488886,81.2796534 C242.276291,81.0358228 242.169993,80.6700769 242.169993,80.1824157 L242.169993,80.1824157 L242.169993,72.6311694 L244.555791,72.6311694 L244.555791,71.0218874 L242.169993,71.0218874 L242.169993,68.0734127 L239.984979,68.0734127 L239.984979,71.0218874 L237.658235,71.0218874 L237.658235,72.6311694 L239.984979,72.6311694 L239.984979,80.1824157 C239.984979,81.2177579 240.233008,82.0167721 240.729065,82.5794581 C241.225122,83.1421441 241.961334,83.4234871 242.9377,83.4234871 Z M255.469047,83.1984127 L255.469047,65.9126984 L253.284034,65.9126984 L253.284034,83.1984127 L255.469047,83.1984127 Z M264.268155,83.4234871 C266.409862,83.4234871 268.016142,82.6394779 269.086996,81.0714596 L269.086996,81.0714596 L267.752366,80.0811322 C267.350796,80.5762959 266.882298,80.9739273 266.346871,81.2740265 C265.811444,81.5741257 265.157909,81.7241753 264.386264,81.7241753 C263.299663,81.7241753 262.404004,81.3546782 261.699288,80.6156839 C260.994572,79.8766896 260.626466,78.906994 260.594971,77.7065972 L260.594971,77.7065972 L269.252348,77.7065972 L269.252348,76.8400608 C269.252348,74.8969184 268.791724,73.4039249 267.870475,72.3610801 C266.949226,71.3182354 265.657903,70.796813 263.996505,70.796813 C262.980769,70.796813 262.037867,71.0650267 261.167798,71.601454 C260.29773,72.1378813 259.620573,72.8806269 259.136327,73.8296906 C258.65208,74.7787543 258.409957,75.8572359 258.409957,77.0651352 L258.409957,77.0651352 L258.409957,77.4477617 C258.409957,79.2633619 258.953258,80.7132161 260.039859,81.7973245 C261.12646,82.8814329 262.535892,83.4234871 264.268155,83.4234871 Z M267.067335,75.9960317 L260.665836,75.9960317 C260.807567,74.8931672 261.177641,74.0360088 261.776059,73.4245567 C262.374477,72.8131045 263.114626,72.5073785 263.996505,72.5073785 C264.90988,72.5073785 265.634281,72.7980996 266.169708,73.3795418 C266.705134,73.960984 267.004343,74.78063 267.067335,75.8384797 L267.067335,75.8384797 L267.067335,75.9960317 Z M276.480609,83.4234871 C277.937284,83.4234871 279.12231,83.0952536 280.035685,82.4387866 C280.94906,81.7823196 281.405747,80.9101562 281.405747,79.8222966 C281.405747,79.1695809 281.242363,78.6162729 280.915595,78.1623729 C280.588828,77.7084728 280.086865,77.3202195 279.409708,76.9976128 C278.732551,76.6750062 277.848703,76.3974144 276.758165,76.1648375 C275.667626,75.9322607 274.913698,75.6884301 274.49638,75.4333457 C274.079062,75.1782614 273.870404,74.7993862 273.870404,74.29672 C273.870404,73.7640439 274.09481,73.3326513 274.543624,73.0025422 C274.992437,72.672433 275.614477,72.5073785 276.409743,72.5073785 C277.181388,72.5073785 277.821144,72.7136967 278.329012,73.1263331 C278.83688,73.5389695 279.090814,74.0303819 279.090814,74.6005704 L279.090814,74.6005704 L281.287638,74.6005704 C281.287638,73.4902034 280.836856,72.578652 279.935292,71.8659164 C279.033728,71.1531808 277.858545,70.796813 276.409743,70.796813 C275.031807,70.796813 273.899931,71.1419271 273.014115,71.8321553 C272.128298,72.5223834 271.68539,73.3664125 271.68539,74.3642423 C271.68539,74.9644407 271.8409,75.4821119 272.15192,75.9172557 C272.46294,76.3523996 272.943249,76.7275236 273.592848,77.0426277 C274.242446,77.3577319 275.120389,77.6278212 276.226675,77.8528956 C277.332961,78.07797 278.108542,78.3461837 278.553419,78.6575366 C278.998295,78.9688895 279.220734,79.405909 279.220734,79.968595 C279.220734,80.5012711 278.970737,80.9270368 278.470743,81.2458922 C277.970749,81.5647476 277.307371,81.7241753 276.480609,81.7241753 C275.582982,81.7241753 274.860549,81.5197328 274.313312,81.1108476 C273.766074,80.7019624 273.47277,80.1486545 273.433401,79.4509239 L273.433401,79.4509239 L271.248387,79.4509239 C271.248387,80.171162 271.470826,80.8407583 271.915702,81.4597129 C272.360579,82.0786675 272.976713,82.5607019 273.764106,82.905816 C274.551498,83.2509301 275.456999,83.4234871 276.480609,83.4234871 Z M288.952902,83.4234871 C290.409577,83.4234871 291.594603,83.0952536 292.507977,82.4387866 C293.421352,81.7823196 293.87804,80.9101562 293.87804,79.8222966 C293.87804,79.1695809 293.714656,78.6162729 293.387888,78.1623729 C293.061121,77.7084728 292.559158,77.3202195 291.882001,76.9976128 C291.204843,76.6750062 290.320996,76.3974144 289.230457,76.1648375 C288.139919,75.9322607 287.385991,75.6884301 286.968673,75.4333457 C286.551355,75.1782614 286.342696,74.7993862 286.342696,74.29672 C286.342696,73.7640439 286.567103,73.3326513 287.015917,73.0025422 C287.46473,72.672433 288.08677,72.5073785 288.882036,72.5073785 C289.653681,72.5073785 290.293437,72.7136967 290.801305,73.1263331 C291.309173,73.5389695 291.563107,74.0303819 291.563107,74.6005704 L291.563107,74.6005704 L293.759931,74.6005704 C293.759931,73.4902034 293.309149,72.578652 292.407585,71.8659164 C291.506021,71.1531808 290.330838,70.796813 288.882036,70.796813 C287.5041,70.796813 286.372224,71.1419271 285.486407,71.8321553 C284.600591,72.5223834 284.157683,73.3664125 284.157683,74.3642423 C284.157683,74.9644407 284.313193,75.4821119 284.624213,75.9172557 C284.935233,76.3523996 285.415542,76.7275236 286.065141,77.0426277 C286.714739,77.3577319 287.592682,77.6278212 288.698968,77.8528956 C289.805254,78.07797 290.580835,78.3461837 291.025712,78.6575366 C291.470588,78.9688895 291.693027,79.405909 291.693027,79.968595 C291.693027,80.5012711 291.44303,80.9270368 290.943035,81.2458922 C290.443041,81.5647476 289.779663,81.7241753 288.952902,81.7241753 C288.055274,81.7241753 287.332842,81.5197328 286.785604,81.1108476 C286.238367,80.7019624 285.945063,80.1486545 285.905694,79.4509239 L285.905694,79.4509239 L283.72068,79.4509239 C283.72068,80.171162 283.943119,80.8407583 284.387995,81.4597129 C284.832872,82.0786675 285.449006,82.5607019 286.236398,82.905816 C287.023791,83.2509301 287.929292,83.4234871 288.952902,83.4234871 Z" id="path-5"></path>
        <path d="M204.398788,112.007937 L208.071972,100.067739 L208.343623,98.8185764 L208.615273,100.067739 L212.158538,112.007937 L214.225443,112.007937 L218.394684,95.6225198 L216.115184,95.6225198 L213.445924,106.831225 L213.079787,109.036954 L212.607352,107.0563 L209.288493,95.6225198 L207.37513,95.6225198 L203.973596,107.0563 L203.48935,109.003193 L203.158645,106.842479 L200.442142,95.6225198 L198.174452,95.6225198 L202.331883,112.007937 L204.398788,112.007937 Z M225.504836,112.233011 C227.646543,112.233011 229.252823,111.449002 230.323677,109.880983 L230.323677,109.880983 L228.989047,108.890656 C228.587477,109.38582 228.118978,109.783451 227.583552,110.08355 C227.048125,110.38365 226.394589,110.533699 225.622945,110.533699 C224.536344,110.533699 223.640685,110.164202 222.935969,109.425208 C222.231253,108.686213 221.863147,107.716518 221.831651,106.516121 L221.831651,106.516121 L230.489029,106.516121 L230.489029,105.649585 C230.489029,103.706442 230.028405,102.213449 229.107156,101.170604 C228.185907,100.127759 226.894583,99.6063368 225.233186,99.6063368 C224.21745,99.6063368 223.274548,99.8745505 222.404479,100.410978 C221.534411,100.947405 220.857254,101.690151 220.373007,102.639214 C219.888761,103.588278 219.646638,104.66676 219.646638,105.874659 L219.646638,105.874659 L219.646638,106.257285 C219.646638,108.072886 220.189939,109.52274 221.27654,110.606848 C222.363141,111.690957 223.772573,112.233011 225.504836,112.233011 Z M228.304016,104.805556 L221.902517,104.805556 C222.044247,103.702691 222.414322,102.845533 223.01274,102.23408 C223.611158,101.622628 224.351307,101.316902 225.233186,101.316902 C226.146561,101.316902 226.870962,101.607623 227.406388,102.189066 C227.941815,102.770508 228.241024,103.590154 228.304016,104.648003 L228.304016,104.648003 L228.304016,104.805556 Z M234.315755,97.7832341 C234.740947,97.7832341 235.063778,97.6706969 235.284248,97.4456225 C235.504717,97.2205481 235.614952,96.9392051 235.614952,96.6015935 C235.614952,96.2639819 235.504717,95.9788876 235.284248,95.7463108 C235.063778,95.5137339 234.740947,95.3974454 234.315755,95.3974454 C233.890563,95.3974454 233.569701,95.5137339 233.353168,95.7463108 C233.136635,95.9788876 233.028369,96.2639819 233.028369,96.6015935 C233.028369,96.9392051 233.136635,97.2205481 233.353168,97.4456225 C233.569701,97.6706969 233.890563,97.7832341 234.315755,97.7832341 Z M235.390546,112.007937 L235.390546,99.8314112 L233.205532,99.8314112 L233.205532,112.007937 L235.390546,112.007937 Z M243.74084,116.802021 C245.394364,116.802021 246.711277,116.348121 247.691581,115.440321 C248.671884,114.532521 249.162036,113.290861 249.162036,111.71534 L249.162036,111.71534 L249.162036,99.8314112 L247.165996,99.8314112 L247.059698,101.181858 C246.185693,100.13151 244.969172,99.6063368 243.410135,99.6063368 C241.890468,99.6063368 240.67001,100.167147 239.748762,101.288768 C238.827513,102.410389 238.366888,103.920263 238.366888,105.81839 C238.366888,107.799045 238.829481,109.363312 239.754667,110.511192 C240.679853,111.659071 241.890468,112.233011 243.386514,112.233011 C244.898307,112.233011 246.091206,111.752852 246.965211,110.792535 L246.965211,110.792535 L246.965211,111.839131 C246.965211,112.874473 246.667971,113.677238 246.07349,114.247427 C245.479008,114.817615 244.650278,115.10271 243.587299,115.10271 C242.232984,115.10271 241.087328,114.551277 240.150332,113.448413 L240.150332,113.448413 L239.016487,114.697576 C239.481048,115.350291 240.154269,115.864211 241.036148,116.239335 C241.918027,116.614459 242.819591,116.802021 243.74084,116.802021 Z M243.929814,110.466177 C242.866835,110.466177 242.040073,110.074172 241.449529,109.290163 C240.858985,108.506154 240.563712,107.427672 240.563712,106.054719 C240.563712,104.509208 240.862922,103.342572 241.46134,102.554812 C242.059758,101.767051 242.890457,101.373171 243.953436,101.373171 C245.292003,101.373171 246.295928,101.954613 246.965211,103.117498 L246.965211,103.117498 L246.965211,108.676835 C246.31955,109.86973 245.307751,110.466177 243.929814,110.466177 Z M254.642285,112.007937 L254.642285,103.331318 C254.941494,102.746125 255.358812,102.273469 255.894239,101.913349 C256.429666,101.55323 257.051706,101.373171 257.760359,101.373171 C258.634364,101.373171 259.278057,101.58324 259.691438,102.003379 C260.104819,102.423518 260.315446,103.072483 260.32332,103.950273 L260.32332,103.950273 L260.32332,112.007937 L262.508334,112.007937 L262.508334,103.961527 C262.484712,101.058067 261.122523,99.6063368 258.421768,99.6063368 C256.870605,99.6063368 255.610778,100.172774 254.642285,101.305649 L254.642285,101.305649 L254.642285,94.7222222 L252.457272,94.7222222 L252.457272,112.007937 L254.642285,112.007937 Z M274.142054,112.007937 L274.142054,94.7222222 L271.95704,94.7222222 L271.95704,112.007937 L274.142054,112.007937 Z M282.941162,112.233011 C285.082869,112.233011 286.689149,111.449002 287.760002,109.880983 L287.760002,109.880983 L286.425373,108.890656 C286.023803,109.38582 285.555304,109.783451 285.019877,110.08355 C284.484451,110.38365 283.830915,110.533699 283.059271,110.533699 C281.97267,110.533699 281.077011,110.164202 280.372295,109.425208 C279.667579,108.686213 279.299473,107.716518 279.267977,106.516121 L279.267977,106.516121 L287.925355,106.516121 L287.925355,105.649585 C287.925355,103.706442 287.46473,102.213449 286.543481,101.170604 C285.622232,100.127759 284.330909,99.6063368 282.669512,99.6063368 C281.653776,99.6063368 280.710873,99.8745505 279.840805,100.410978 C278.970737,100.947405 278.293579,101.690151 277.809333,102.639214 C277.325087,103.588278 277.082964,104.66676 277.082964,105.874659 L277.082964,105.874659 L277.082964,106.257285 C277.082964,108.072886 277.626264,109.52274 278.712866,110.606848 C279.799467,111.690957 281.208899,112.233011 282.941162,112.233011 Z M285.740341,104.805556 L279.338843,104.805556 C279.480573,103.702691 279.850647,102.845533 280.449066,102.23408 C281.047484,101.622628 281.787632,101.316902 282.669512,101.316902 C283.582887,101.316902 284.307287,101.607623 284.842714,102.189066 C285.378141,102.770508 285.67735,103.590154 285.740341,104.648003 L285.740341,104.648003 L285.740341,104.805556 Z M295.153615,112.233011 C296.610291,112.233011 297.795316,111.904777 298.708691,111.24831 C299.622066,110.591843 300.078754,109.71968 300.078754,108.63182 C300.078754,107.979105 299.91537,107.425797 299.588602,106.971897 C299.261834,106.517997 298.759872,106.129743 298.082714,105.807137 C297.405557,105.48453 296.521709,105.206938 295.431171,104.974361 C294.340633,104.741784 293.586705,104.497954 293.169387,104.24287 C292.752069,103.987785 292.54341,103.60891 292.54341,103.106244 C292.54341,102.573568 292.767817,102.142175 293.21663,101.812066 C293.665444,101.481957 294.287484,101.316902 295.08275,101.316902 C295.854394,101.316902 296.494151,101.52322 297.002019,101.935857 C297.509887,102.348493 297.763821,102.839906 297.763821,103.410094 L297.763821,103.410094 L299.960645,103.410094 C299.960645,102.299727 299.509863,101.388176 298.608299,100.67544 C297.706735,99.9627046 296.531552,99.6063368 295.08275,99.6063368 C293.704814,99.6063368 292.572937,99.9514509 291.687121,100.641679 C290.801305,101.331907 290.358397,102.175936 290.358397,103.173766 C290.358397,103.773965 290.513907,104.291636 290.824927,104.72678 C291.135947,105.161923 291.616256,105.537047 292.265854,105.852152 C292.915453,106.167256 293.793395,106.437345 294.899681,106.662419 C296.005967,106.887494 296.781549,107.155707 297.226425,107.46706 C297.671302,107.778413 297.89374,108.215433 297.89374,108.778119 C297.89374,109.310795 297.643743,109.736561 297.143749,110.055416 C296.643755,110.374271 295.980377,110.533699 295.153615,110.533699 C294.255988,110.533699 293.533556,110.329257 292.986318,109.920371 C292.439081,109.511486 292.145777,108.958178 292.106407,108.260448 L292.106407,108.260448 L289.921394,108.260448 C289.921394,108.980686 290.143832,109.650282 290.588709,110.269237 C291.033586,110.888191 291.64972,111.370226 292.437112,111.71534 C293.224504,112.060454 294.130005,112.233011 295.153615,112.233011 Z M307.625908,112.233011 C309.082584,112.233011 310.267609,111.904777 311.180984,111.24831 C312.094359,110.591843 312.551047,109.71968 312.551047,108.63182 C312.551047,107.979105 312.387663,107.425797 312.060895,106.971897 C311.734127,106.517997 311.232165,106.129743 310.555007,105.807137 C309.87785,105.48453 308.994002,105.206938 307.903464,104.974361 C306.812926,104.741784 306.058998,104.497954 305.64168,104.24287 C305.224362,103.987785 305.015703,103.60891 305.015703,103.106244 C305.015703,102.573568 305.24011,102.142175 305.688923,101.812066 C306.137737,101.481957 306.759777,101.316902 307.555043,101.316902 C308.326687,101.316902 308.966443,101.52322 309.474311,101.935857 C309.982179,102.348493 310.236113,102.839906 310.236113,103.410094 L310.236113,103.410094 L312.432938,103.410094 C312.432938,102.299727 311.982156,101.388176 311.080592,100.67544 C310.179027,99.9627046 309.003845,99.6063368 307.555043,99.6063368 C306.177106,99.6063368 305.04523,99.9514509 304.159414,100.641679 C303.273598,101.331907 302.83069,102.175936 302.83069,103.173766 C302.83069,103.773965 302.9862,104.291636 303.297219,104.72678 C303.608239,105.161923 304.088549,105.537047 304.738147,105.852152 C305.387746,106.167256 306.265688,106.437345 307.371974,106.662419 C308.47826,106.887494 309.253842,107.155707 309.698718,107.46706 C310.143595,107.778413 310.366033,108.215433 310.366033,108.778119 C310.366033,109.310795 310.116036,109.736561 309.616042,110.055416 C309.116048,110.374271 308.45267,110.533699 307.625908,110.533699 C306.728281,110.533699 306.005849,110.329257 305.458611,109.920371 C304.911373,109.511486 304.61807,108.958178 304.5787,108.260448 L304.5787,108.260448 L302.393687,108.260448 C302.393687,108.980686 302.616125,109.650282 303.061002,110.269237 C303.505878,110.888191 304.122013,111.370226 304.909405,111.71534 C305.696797,112.060454 306.602298,112.233011 307.625908,112.233011 Z" id="path-6"></path>
    </defs>
    <g id="Landing" stroke="none" stroke-width="1" fill="none" fill-rule="evenodd">
        <g id="Desktop">
            <path d="M-9.09494702e-13,300 C172.121408,265.51448 347.822768,240.572944 527.104079,225.175392 C654.693607,214.217383 893.651801,200.093299 1109.5043,149.912972 C1263.42565,114.130093 1373.59088,86.6710688 1440,67.5359002 L1440,0 L-9.09494702e-13,0 L-9.09494702e-13,300 Z" id="Path-2" fill-opacity="0.9" fill="#1C7C54"></path>
            <path d="M2.27373675e-13,201.422877 C63.0187228,277.339586 165.323231,309.752842 306.913525,298.662647 C444.330805,287.899308 1127.54669,94.7128417 1248.67532,75.6795429 C1428.00747,47.5005535 1440.00117,49.6239334 1440.00117,49.6239334 C1440.00117,49.6239334 1440.00117,33.0826223 1440.00117,0 L2.27373675e-13,0 L2.27373675e-13,201.422877 Z" id="Path" fill-opacity="0.9" fill="#73E2A7"></path>
        </g>
    </g>
</svg>