<svg version="1.1" id="Capa_1" xmlns="http://www.w3.org/2000/svg" xmlns:xlink="http://www.w3.org/1999/xlink" x="0px" y="0px"
	 viewBox="0 0 460.213 460.213" style="enable-background:new 0 0 460.213 460.213;" xml:space="preserve">
<g id="XMLID_448_">
	<path id="XMLID_449_" style="fill:rgba(248, 247, 145, 0.21);" d="M132.614,159.787h40c0-16.314,2.743-23.616,6.215-32.861
		c4.11-10.943,8.77-23.347,8.77-46.926s-4.659-35.982-8.77-46.926c-3.472-9.245-6.215-16.547-6.215-32.861h-40
		c0,23.579,4.659,35.982,8.77,46.926c3.472,9.245,6.215,16.547,6.215,32.861s-2.743,23.616-6.215,32.861
		C137.273,123.805,132.614,136.208,132.614,159.787z"/>
	<path id="XMLID_450_" style="fill:rgba(248, 247, 145, 0.45);" d="M202.614,159.787h40c0-16.314,2.743-23.616,6.215-32.861
		c4.11-10.943,8.77-23.347,8.77-46.926s-4.659-35.982-8.77-46.926c-3.472-9.245-6.215-16.547-6.215-32.861h-40
		c0,23.579,4.659,35.982,8.77,46.926c3.472,9.245,6.215,16.547,6.215,32.861s-2.743,23.616-6.215,32.861
		C207.273,123.805,202.614,136.208,202.614,159.787z"/>
	<path id="XMLID_451_" style="fill:rgba(248, 247, 145, 1);" d="M272.614,159.574h40c0-16.314,2.743-23.616,6.215-32.861
		c4.11-10.943,8.77-23.347,8.77-46.926s-4.659-35.982-8.77-46.926c-3.472-9.245-6.215-16.547-6.215-32.861h-40
		c0,23.579,4.659,35.982,8.77,46.926c3.472,9.245,6.215,16.547,6.215,32.861s-2.743,23.616-6.215,32.861
		C277.273,123.592,272.614,135.995,272.614,159.574z"/>
	<polygon id="XMLID_452_" style="fill:rgba(68,68,68,0.53);" points="460.106,108.498 431.821,80.213 311.821,200.213 368.392,200.213 	"/>
	<path id="XMLID_453_" style="fill:rgba(28, 124, 84, 0.89);" d="M230.106,200.213v231.37h93.92c25.28-11.31,48.54-27.27,68.71-47.44
		c43.45-43.44,67.37-101.2,67.37-162.63v-21.3H230.106z"/>
	<rect id="XMLID_454_" x="230.106" y="431.583" style="fill:rgba(115, 226, 167, 0.90);" width="93.92" height="28.63"/>
	<rect id="XMLID_455_" x="136.187" y="431.583" style="fill:rgba(115, 226, 167, 0.49);" width="93.92" height="28.63"/>
	<path id="XMLID_458_" style="fill:rgba(115, 226, 167, 0.90);" d="M230.106,431.583v-231.37h-230v21.3c0,61.43,23.92,119.19,67.37,162.63
		c20.17,20.17,43.43,36.13,68.71,47.44H230.106z"/>
</g>
<g>
</g>
<g>
</g>
<g>
</g>
<g>
</g>
<g>
</g>
<g>
</g>
<g>
</g>
<g>
</g>
<g>
</g>
<g>
</g>
<g>
</g>
<g>
</g>
<g>
</g>
<g>
</g>
<g>
</g>
</svg>
